<svg xmlns:dc="http://purl.org/dc/elements/1.1/" xmlns:cc="http://creativecommons.org/ns#" xmlns:rdf="http://www.w3.org/1999/02/22-rdf-syntax-ns#" xmlns:svg="http://www.w3.org/2000/svg" xmlns="http://www.w3.org/2000/svg" xmlns:sodipodi="http://sodipodi.sourceforge.net/DTD/sodipodi-0.dtd" xmlns:inkscape="http://www.inkscape.org/namespaces/inkscape" id="svg2" xml:space="preserve" width="1123.088" height="372.88" viewBox="0 0 1123.088 372.88" sodipodi:docname="Logo Godital March.ai"><metadata></metadata><defs id="defs6"><clipPath clipPathUnits="userSpaceOnUse" id="clipPath18"><path d="M 0,279.66 H 842.315 V 0 H 0 Z" id="path16"></path></clipPath></defs><g id="g10" inkscape:groupmode="layer" inkscape:label="Logo Godital March" transform="matrix(1.3333333,0,0,-1.3333333,0,372.88)"><g id="g12"><g id="g14" clip-path="url(#clipPath18)"><g id="g20" transform="translate(375.7065,27.8665)"><path d="m 0,0 c 5.72,3.178 10.364,7.944 13.932,14.293 3.566,6.355 5.349,14.07 5.349,23.144 0,9.081 -1.712,16.757 -5.127,23.036 -3.42,6.272 -7.952,11.001 -13.596,14.178 -5.648,3.178 -11.742,4.767 -18.279,4.767 -6.538,0 -12.593,-1.589 -18.166,-4.767 -5.573,-3.177 -9.995,-7.906 -13.26,-14.178 -3.273,-6.279 -4.906,-13.955 -4.906,-23.036 0,-13.464 3.378,-23.858 10.143,-31.197 6.76,-7.338 15.27,-11.008 25.521,-11.008 6.538,0 12.669,1.59 18.389,4.768 m -49.818,-19.176 c -9.363,5.374 -16.715,12.936 -22.065,22.692 -5.35,9.756 -8.027,21.063 -8.027,33.921 0,12.711 2.749,23.972 8.25,33.813 5.493,9.826 13,17.388 22.513,22.684 9.508,5.296 20.133,7.945 31.875,7.945 11.737,0 22.362,-2.649 31.875,-7.945 9.504,-5.296 17.012,-12.858 22.509,-22.684 5.497,-9.841 8.249,-21.102 8.249,-33.813 0,-12.705 -2.824,-23.973 -8.471,-33.806 -5.649,-9.833 -13.34,-17.433 -23.068,-22.807 -9.735,-5.365 -20.473,-8.052 -32.211,-8.052 -11.59,0 -22.067,2.687 -31.429,8.052" style="fill:#00417f;fill-opacity:1;fill-rule:nonzero;stroke:none" id="path22"></path></g><g id="g24" transform="translate(533.0678,87.7718)"><path d="m 0,0 c -3.491,6.348 -8.062,11.191 -13.705,14.516 -5.652,3.331 -11.741,4.997 -18.279,4.997 -6.542,0 -12.631,-1.627 -18.279,-4.882 -5.648,-3.255 -10.217,-8.022 -13.71,-14.294 -3.491,-6.278 -5.237,-13.725 -5.237,-22.353 0,-8.62 1.746,-16.181 5.237,-22.683 3.493,-6.509 8.099,-11.46 13.823,-14.868 5.719,-3.401 11.775,-5.106 18.166,-5.106 6.538,0 12.627,1.666 18.279,4.998 5.643,3.323 10.214,8.198 13.705,14.631 3.495,6.433 5.244,13.955 5.244,22.575 C 5.244,-13.841 3.495,-6.356 0,0 m -87.598,11.345 c 5.128,9.673 12.111,17.203 20.952,22.576 8.838,5.365 18.687,8.053 29.534,8.053 8.023,0 15.937,-1.782 23.738,-5.335 C -5.573,33.084 0.634,28.363 5.244,22.46 V 82.818 H 30.868 V -85.091 H 5.244 v 18.829 C 1.078,-72.31 -4.68,-77.3 -12.035,-81.229 c -7.357,-3.939 -15.79,-5.904 -25.3,-5.904 -10.7,0 -20.473,2.756 -29.311,8.282 -8.841,5.52 -15.824,13.235 -20.952,23.145 -5.128,9.902 -7.691,21.14 -7.691,33.69 0,12.559 2.563,23.674 7.691,33.361" style="fill:#00417f;fill-opacity:1;fill-rule:nonzero;stroke:none" id="path26"></path></g><path d="m 606.091,2.681 h -25.412 v 125.022 h 25.412 z m -24.077,146.354 c -3.122,3.17 -4.676,7.109 -4.676,11.799 0,4.682 1.554,8.62 4.676,11.798 3.121,3.178 6.983,4.759 11.59,4.759 4.464,0 8.25,-1.581 11.372,-4.759 3.121,-3.178 4.683,-7.116 4.683,-11.798 0,-4.69 -1.562,-8.629 -4.683,-11.799 -3.122,-3.177 -6.908,-4.767 -11.372,-4.767 -4.607,0 -8.469,1.59 -11.59,4.767" style="fill:#00417f;fill-opacity:1;fill-rule:nonzero;stroke:none" id="path28"></path><g id="g30" transform="translate(648.3481,106.6009)"><path d="m 0,0 v -69.2 c 0,-4.698 1.078,-8.061 3.234,-10.103 2.15,-2.042 5.829,-3.062 11.034,-3.062 H 29.869 V -103.92 H 9.811 c -11.448,0 -20.209,2.725 -26.303,8.167 -6.093,5.45 -9.139,14.294 -9.139,26.553 V 0 h -14.486 v 21.103 h 14.486 V 52.191 H 0 V 21.103 H 29.869 V 0 Z" style="fill:#00417f;fill-opacity:1;fill-rule:nonzero;stroke:none" id="path32"></path></g><g id="g34" transform="translate(768.352,87.7718)"><path d="m 0,0 c -3.491,6.348 -8.061,11.191 -13.709,14.516 -5.648,3.331 -11.741,4.997 -18.279,4.997 -6.537,0 -12.631,-1.627 -18.272,-4.882 -5.655,-3.255 -10.217,-8.022 -13.709,-14.294 -3.499,-6.278 -5.24,-13.725 -5.24,-22.353 0,-8.62 1.741,-16.181 5.24,-22.683 3.492,-6.509 8.1,-11.46 13.816,-14.868 5.722,-3.401 11.778,-5.106 18.165,-5.106 6.538,0 12.631,1.666 18.279,4.998 5.648,3.323 10.218,8.198 13.709,14.631 3.491,6.433 5.241,13.955 5.241,22.575 C 5.241,-13.841 3.491,-6.356 0,0 m -87.602,11.345 c 5.128,9.673 12.111,17.203 20.956,22.576 8.838,5.365 18.611,8.053 29.311,8.053 9.66,0 18.091,-1.927 25.3,-5.788 7.209,-3.854 12.963,-8.66 17.276,-14.409 V 39.932 H 30.872 V -85.091 H 5.241 v 18.608 c -4.313,-5.904 -10.18,-10.817 -17.608,-14.746 -7.435,-3.939 -15.904,-5.904 -25.412,-5.904 -10.557,0 -20.209,2.756 -28.98,8.282 -8.769,5.52 -15.715,13.235 -20.843,23.145 -5.12,9.902 -7.683,21.14 -7.683,33.69 0,12.559 2.563,23.674 7.683,33.361" style="fill:#00417f;fill-opacity:1;fill-rule:nonzero;stroke:none" id="path36"></path></g><path d="M 841.365,2.681 H 815.953 V 170.59 h 25.412 z" style="fill:#00417f;fill-opacity:1;fill-rule:nonzero;stroke:none" id="path38"></path><g id="g40" transform="translate(58.5248,117.5081)"><path d="m 0,0 c -9.178,-7.144 -17.53,-14.386 -24.736,-21.508 -4.453,13.723 -6.864,28.395 -6.864,43.639 0,76.768 61.134,139 136.547,139 21.545,0 41.922,-5.079 60.043,-14.125 -14.423,4.779 -32.766,7.376 -56.09,7.376 C 53.058,154.382 -4.826,102.245 -4.826,35.369 -4.826,23.064 -3.138,11.188 0,0" style="fill:#00417f;fill-opacity:1;fill-rule:nonzero;stroke:none" id="path42"></path></g><g id="g44" transform="translate(300.0209,139.6389)"><path d="m 0,0 c 0,-76.768 -61.135,-139 -136.549,-139 -52.858,0 -98.701,30.573 -121.395,75.297 6.483,5.511 14.869,11.537 25.586,18.189 19.009,-37.18 55.504,-62.338 97.403,-62.338 61.507,0 111.368,54.214 111.368,121.09 0,0.436 0,0.872 -0.001,1.308 -29.223,-1.046 -74.561,-5.179 -126.216,-18.827 0.137,0.068 4.609,2.285 12.597,5.61 0.001,0.002 0.002,0.002 0.004,0.002 17.973,7.482 53.746,20.569 97.99,27.392 5.045,0.778 10.199,1.474 15.45,2.072 6.528,0.744 13.203,1.333 20.001,1.737 1.363,-5.774 2.368,-11.689 2.994,-17.719 C -0.26,9.947 0,5.005 0,0" style="fill:#ce181e;fill-opacity:1;fill-rule:nonzero;stroke:none" id="path46"></path></g><g id="g48" transform="translate(91.31,157.9388)"><path d="m 0,0 c 0,0 90.43,46.746 177.596,63.522 5.32,1.024 8.244,6.902 5.916,11.878 -1.736,3.709 -5.848,5.599 -9.729,4.471 C 149.895,72.922 67.192,46.77 0,0" style="fill:#ce181e;fill-opacity:1;fill-rule:nonzero;stroke:none" id="path50"></path></g><g id="g52" transform="translate(260.808,168.3616)"><path d="M 0,0 C -24.204,-4.287 -59.333,-12.636 -97.99,-27.392 -80.017,-19.91 -44.244,-6.822 0,0" style="fill:#ce181e;fill-opacity:1;fill-rule:nonzero;stroke:none" id="path54"></path></g><g id="g56" transform="translate(283.0639,194.4085)"><path d="m 0,0 c -3.521,0 -6.375,2.905 -6.375,6.489 0,3.584 2.854,6.489 6.375,6.489 3.521,0 6.375,-2.905 6.375,-6.489 C 6.375,2.905 3.521,0 0,0 m 10.332,8.276 c -0.042,0.14 -0.086,0.279 -0.133,0.42 -4.59,14.016 -12.239,17.131 -26.009,14.016 -13.769,-3.115 -140.628,-38.935 -204.885,-85.658 -64.258,-46.723 -97.025,-100.973 -5.356,-99.675 0,0 -40.543,2.336 -40.543,19.468 0,17.132 18.997,39.715 99.32,78.65 69.458,33.669 136.055,45.793 161.704,48.456 11.644,1.21 19.388,12.949 15.902,24.323" style="fill:#00417f;fill-opacity:1;fill-rule:nonzero;stroke:none" id="path58"></path></g></g></g></g></svg>